<?xml version="1.0" encoding="UTF-8" standalone="no"?>
<svg
   xmlns:dc="http://purl.org/dc/elements/1.1/"
   xmlns:cc="http://creativecommons.org/ns#"
   xmlns:rdf="http://www.w3.org/1999/02/22-rdf-syntax-ns#"
   xmlns:svg="http://www.w3.org/2000/svg"
   xmlns="http://www.w3.org/2000/svg"
   xmlns:sodipodi="http://sodipodi.sourceforge.net/DTD/sodipodi-0.dtd"
   xmlns:inkscape="http://www.inkscape.org/namespaces/inkscape"
   id="Layer_1_1_"
   version="1.1"
   viewBox="0 0 254.00082 57.949001"
   xml:space="preserve"
   sodipodi:docname="yangpath_logo_src.svg"
   inkscape:version="1.0rc1 (09960d6, 2020-04-09)"
   width="254.00082"
   height="57.949001"><metadata
     id="metadata55"><rdf:RDF><cc:Work
         rdf:about=""><dc:format>image/svg+xml</dc:format><dc:type
           rdf:resource="http://purl.org/dc/dcmitype/StillImage" /><dc:title /></cc:Work></rdf:RDF></metadata><defs
     id="defs53" /><sodipodi:namedview
     inkscape:document-rotation="0"
     pagecolor="#ffffff"
     bordercolor="#666666"
     borderopacity="1"
     objecttolerance="10"
     gridtolerance="10"
     guidetolerance="10"
     inkscape:pageopacity="0"
     inkscape:pageshadow="2"
     inkscape:window-width="2187"
     inkscape:window-height="1239"
     id="namedview51"
     showgrid="false"
     inkscape:zoom="2.8284271"
     inkscape:cx="114.85145"
     inkscape:cy="-7.2732595"
     inkscape:window-x="1586"
     inkscape:window-y="76"
     inkscape:window-maximized="0"
     inkscape:current-layer="layer1" /><g
     inkscape:groupmode="layer"
     id="layer2"
     inkscape:label="Base"
     style="display:inline"
     transform="translate(-3,-3.025)"><g
       id="g48"
       style="fill:#001135;fill-opacity:1"><path
         d="m 15,32 c 0,-1.483 0.211,-2.915 0.569,-4.287 L 4.132,23.997 C 3.4,26.541 3,29.224 3,32 c 0,2.776 0.4,5.459 1.132,8.003 L 15.569,36.287 C 15.211,34.915 15,33.483 15,32 Z m -3.233,0.787 C 11.52,33.548 10.99,34.168 10.276,34.532 9.848,34.75 9.384,34.86 8.917,34.86 8.605,34.86 8.292,34.811 7.986,34.712 7.224,34.465 6.604,33.935 6.24,33.221 5.877,32.507 5.812,31.694 6.06,30.932 6.307,30.17 6.837,29.55 7.551,29.186 8.264,28.824 9.076,28.76 9.84,29.006 c 0.762,0.248 1.382,0.777 1.746,1.491 0.364,0.714 0.429,1.527 0.181,2.29 z"
         id="path10"
         inkscape:connector-curvature="0"
         style="fill:#001135;fill-opacity:1" /><path
         d="M 16.184,38.19 4.745,41.907 c 1.878,5.15 5.18,9.617 9.423,12.936 l 7.054,-9.709 C 18.995,43.305 17.254,40.915 16.184,38.19 Z m -3.811,11.557 -3.091,-5.953 1.775,-0.922 3.091,5.953 z m 3.969,-2.06 -3.091,-5.953 1.775,-0.922 3.091,5.953 z"
         id="path12"
         inkscape:connector-curvature="0"
         style="fill:#001135;fill-opacity:1" /><path
         d="m 9.223,30.908 v 0 c -0.103,-0.033 -0.207,-0.05 -0.311,-0.05 -0.155,0 -0.31,0.037 -0.452,0.109 -0.238,0.121 -0.415,0.328 -0.497,0.582 -0.083,0.255 -0.062,0.525 0.06,0.763 0.121,0.238 0.328,0.415 0.582,0.497 0.258,0.084 0.527,0.061 0.763,-0.06 C 9.606,32.628 9.783,32.421 9.865,32.168 9.948,31.913 9.927,31.643 9.805,31.404 9.683,31.165 9.477,30.99 9.223,30.908 Z"
         id="path14"
         inkscape:connector-curvature="0"
         style="fill:#001135;fill-opacity:1" /><path
         d="M 15.779,56.027 C 20.153,58.99 25.377,60.783 31,60.974 V 48.949 c -2.991,-0.175 -5.774,-1.118 -8.155,-2.648 z m 10.716,-4.541 c 0.648,0.471 1.074,1.166 1.199,1.958 0.126,0.791 -0.064,1.584 -0.536,2.232 -0.586,0.807 -1.502,1.234 -2.431,1.234 -0.61,0 -1.228,-0.186 -1.758,-0.57 -0.649,-0.472 -1.075,-1.167 -1.2,-1.959 -0.126,-0.791 0.064,-1.584 0.536,-2.232 0.471,-0.648 1.165,-1.074 1.957,-1.199 0.789,-0.125 1.585,0.065 2.233,0.536 z"
         id="path16"
         inkscape:connector-curvature="0"
         style="fill:#001135;fill-opacity:1" /><path
         d="m 25.541,54.501 c 0.324,-0.446 0.225,-1.073 -0.222,-1.397 -0.173,-0.125 -0.376,-0.19 -0.586,-0.19 -0.052,0 -0.105,0.004 -0.158,0.012 -0.264,0.042 -0.495,0.184 -0.651,0.399 l -0.001,10e-4 c -0.156,0.216 -0.22,0.48 -0.179,0.744 0.042,0.264 0.185,0.496 0.4,0.653 0.446,0.322 1.073,0.224 1.397,-0.222 z"
         id="path18"
         inkscape:connector-curvature="0"
         style="fill:#001135;fill-opacity:1" /><circle
         cx="28"
         cy="39"
         r="1"
         id="circle20"
         style="fill:#001135;fill-opacity:1" /><path
         d="M 48.221,7.973 C 43.847,5.01 38.623,3.217 33,3.025 V 15.05 c 2.991,0.175 5.774,1.118 8.155,2.648 z m -10.774,-1.868 6,3 v 0 z m -1.999,4.001 v 0 l 6,3 v 0 z"
         id="path22"
         inkscape:connector-curvature="0"
         sodipodi:nodetypes="ccccccccccccccc"
         style="fill:#001135;fill-opacity:1" /><path
         d="m 47.816,25.81 11.439,-3.717 c -1.878,-5.15 -5.18,-9.617 -9.423,-12.936 l -7.054,9.709 c 2.227,1.829 3.968,4.219 5.038,6.944 z m 0.271,-8.628 c 0.364,-0.714 0.984,-1.243 1.747,-1.49 0.762,-0.249 1.576,-0.183 2.288,0.18 0.714,0.364 1.244,0.984 1.491,1.746 0.248,0.762 0.184,1.575 -0.18,2.289 -0.364,0.714 -0.984,1.243 -1.746,1.491 -0.306,0.099 -0.619,0.148 -0.931,0.148 -0.467,0 -0.931,-0.11 -1.358,-0.328 -0.714,-0.364 -1.244,-0.984 -1.491,-1.747 -0.248,-0.762 -0.183,-1.575 0.18,-2.289 z"
         id="path24"
         inkscape:connector-curvature="0"
         style="fill:#001135;fill-opacity:1" /><path
         d="M 21.221,18.865 14.167,9.156 C 9.925,12.475 6.622,16.942 4.744,22.092 l 11.439,3.717 c 1.071,-2.724 2.812,-5.114 5.038,-6.944 z M 9.056,18.817 13.763,14.038 v 0 z m 3.186,3.138 4.707,-4.779 v 0 z"
         id="path26"
         inkscape:connector-curvature="0"
         sodipodi:nodetypes="ccccccccccccccc"
         style="fill:#001135;fill-opacity:1" /><path
         d="m 50.307,19.436 c 0.237,0.12 0.509,0.143 0.762,0.06 h 10e-4 c 0.254,-0.082 0.461,-0.259 0.582,-0.497 0.121,-0.238 0.143,-0.509 0.06,-0.763 -0.082,-0.254 -0.259,-0.461 -0.497,-0.582 -0.143,-0.072 -0.297,-0.109 -0.452,-0.109 -0.104,0 -0.208,0.017 -0.31,0.05 -0.255,0.082 -0.462,0.259 -0.583,0.496 -0.121,0.238 -0.143,0.509 -0.06,0.763 0.082,0.253 0.258,0.46 0.497,0.582 z"
         id="path28"
         inkscape:connector-curvature="0"
         style="fill:#001135;fill-opacity:1" /><ellipse
         id="circle30"
         cy="10"
         cx="25"
         rx="3.090909"
         ry="3"
         style="fill:#001135;fill-opacity:1" /><path
         d="M 31,15.051 V 3.025 C 25.377,3.217 20.153,5.01 15.779,7.973 l 7.066,9.726 C 25.226,16.169 28.009,15.226 31,15.051 Z M 25,7 c 1.654,0 3,1.346 3,3 0,1.654 -1.346,3 -3,3 -1.654,0 -3,-1.346 -3,-3 0,-1.654 1.346,-3 3,-3 z"
         id="path32"
         style="fill:#001135;fill-opacity:1"
         inkscape:connector-curvature="0" /><path
         d="M 31.643,33.057 29.748,31.162 C 27.976,29.39 27,27.034 27,24.527 27,21.542 28.423,18.811 30.732,17.064 23.053,17.711 17,24.156 17,32 c 0,7.061 4.909,12.982 11.49,14.568 l 1.454,-0.831 C 32.446,44.308 34,41.629 34,38.748 34,36.599 33.163,34.577 31.643,33.057 Z M 28,42 c -1.654,0 -3,-1.346 -3,-3 0,-1.654 1.346,-3 3,-3 1.654,0 3,1.346 3,3 0,1.654 -1.346,3 -3,3 z"
         id="path34"
         inkscape:connector-curvature="0"
         style="fill:#001135;fill-opacity:1" /><path
         d="m 33,48.949 v 12.025 c 5.623,-0.192 10.847,-1.985 15.221,-4.947 l -7.066,-9.726 c -2.381,1.53 -5.164,2.473 -8.155,2.648 z m 9.813,7.201 -6.617,1.1 -0.328,-1.973 6.617,-1.1 z m -0.733,-4.411 -6.617,1.1 -0.328,-1.973 6.617,-1.1 z"
         id="path36"
         inkscape:connector-curvature="0"
         style="fill:#001135;fill-opacity:1" /><path
         d="m 42.779,45.135 7.054,9.709 c 4.242,-3.319 7.545,-7.786 9.423,-12.936 L 47.816,38.19 c -1.07,2.725 -2.811,5.115 -5.037,6.945 z m 6.052,-1.878 c 1.338,-0.972 3.219,-0.674 4.191,0.664 0.971,1.339 0.673,3.219 -0.665,4.19 -0.519,0.376 -1.129,0.573 -1.757,0.573 -0.158,0 -0.316,-0.013 -0.476,-0.038 -0.791,-0.125 -1.486,-0.551 -1.957,-1.199 -0.472,-0.648 -0.662,-1.441 -0.536,-2.232 0.126,-0.792 0.552,-1.487 1.2,-1.958 z"
         id="path38"
         inkscape:connector-curvature="0"
         style="fill:#001135;fill-opacity:1" /><path
         d="M 47,32 C 47,24.628 41.65,18.495 34.631,17.246 l -1.156,0.495 C 30.757,18.906 29,21.57 29,24.527 c 0,1.973 0.768,3.826 2.162,5.221 l 1.895,1.895 C 34.955,33.54 36,36.064 36,38.748 c 0,3.299 -1.645,6.37 -4.325,8.235 C 31.784,46.986 31.89,47 32,47 40.271,47 47,40.271 47,32 Z M 36,28 c -1.654,0 -3,-1.346 -3,-3 0,-1.654 1.346,-3 3,-3 1.654,0 3,1.346 3,3 0,1.654 -1.346,3 -3,3 z"
         id="path40"
         inkscape:connector-curvature="0"
         style="fill:#001135;fill-opacity:1" /><path
         d="M 59.868,23.997 48.431,27.713 C 48.789,29.085 49,30.517 49,32 c 0,1.483 -0.211,2.915 -0.569,4.287 l 11.437,3.716 C 60.6,37.459 61,34.776 61,32 61,29.224 60.6,26.541 59.868,23.997 Z m -6.978,11.149 -1.979,-0.299 0.999,-6.633 1.979,0.299 z m 4.422,0.666 -1.979,-0.299 0.999,-6.633 1.979,0.299 z"
         id="path42"
         inkscape:connector-curvature="0"
         style="fill:#001135;fill-opacity:1" /><path
         d="m 50.438,46.672 c 0.263,0.04 0.527,-0.022 0.743,-0.179 0.446,-0.324 0.546,-0.951 0.222,-1.397 -0.195,-0.269 -0.501,-0.411 -0.811,-0.411 -0.203,0 -0.409,0.062 -0.587,0.19 -0.215,0.156 -0.357,0.389 -0.399,0.652 -0.041,0.264 0.022,0.528 0.179,0.744 0.157,0.216 0.39,0.359 0.653,0.401 z"
         id="path44"
         inkscape:connector-curvature="0"
         style="fill:#001135;fill-opacity:1" /><circle
         cx="36"
         cy="25"
         r="1"
         id="circle46"
         style="fill:#001135;fill-opacity:1" /><rect
         style="fill:#001135;fill-opacity:1"
         id="rect57"
         width="8.909091"
         height="8.090909"
         x="4.454545"
         y="27.90909" /><path
         style="fill:#001135;fill-opacity:1;stroke-width:0.0227273"
         d="M 13.979288,54.678192 C 12.196484,53.213989 11.022786,52.065907 9.7431155,50.534476 7.8862762,48.312324 6.3694551,45.821568 5.2530065,43.161313 5.0222408,42.611448 4.7710223,41.956564 4.7802436,41.9289 4.7865636,41.90995 16.163172,38.199888 16.17426,38.213163 c 0.0023,0.0027 0.08399,0.194172 0.181577,0.425422 0.632969,1.49996 1.555193,3.011907 2.602746,4.267093 0.505773,0.606021 1.377485,1.492674 1.936422,1.969611 0.159895,0.136437 0.287735,0.260683 0.284091,0.276103 -0.008,0.03366 -7.001679,9.667196 -7.01799,9.666959 -0.0062,-9.1e-5 -0.08807,-0.06316 -0.181818,-0.140159 z m -0.682235,-5.39523 c 0.468979,-0.244155 0.855886,-0.447048 0.859792,-0.450872 0.0082,-0.0081 -3.059381,-5.922259 -3.087132,-5.951853 -0.01017,-0.01084 -0.418613,0.187795 -0.907657,0.441414 -0.699028,0.362517 -0.8863296,0.468795 -0.8758778,0.496985 0.017378,0.04687 3.0073658,5.815074 3.0501328,5.884232 0.02175,0.03517 0.04536,0.04807 0.07039,0.03846 0.02072,-0.0079 0.421375,-0.214216 0.890354,-0.458371 z m 3.939013,-2.042104 c 0.483089,-0.25 0.878624,-0.466869 0.878965,-0.481931 4.7e-4,-0.02077 -3.050591,-5.922337 -3.079809,-5.957172 -0.0034,-0.004 -0.40622,0.200539 -0.895243,0.454545 -0.642643,0.3338 -0.887395,0.471606 -0.882866,0.497091 0.0094,0.0529 3.072373,5.952449 3.087529,5.946847 0.0072,-0.0027 0.408335,-0.20938 0.891424,-0.45938 z"
         id="path81"
         inkscape:connector-curvature="0" /><path
         style="fill:#001135;fill-opacity:1;stroke-width:0.0227273"
         d="M 13.979288,54.67866 C 12.508464,53.47472 11.49868,52.521454 10.420933,51.319466 8.2487937,48.896928 6.501357,46.138475 5.2528707,43.161313 5.0219338,42.610617 4.7710445,41.956498 4.7802117,41.928996 c 0.00654,-0.01962 11.3818963,-3.728803 11.3950843,-3.715614 0.003,0.003 0.07298,0.168983 0.155431,0.368771 0.197303,0.47809 0.704538,1.495088 0.980318,1.965523 0.559214,0.953925 1.19943,1.847158 1.907186,2.660915 0.331189,0.380792 1.293057,1.337871 1.664466,1.65618 0.165625,0.141946 0.301136,0.267114 0.301136,0.278153 0,0.01104 -0.57017,0.805133 -1.267045,1.764655 -0.696875,0.959522 -2.274432,3.132093 -3.505682,4.827935 -1.23125,1.695842 -2.24375,3.083197 -2.25,3.08301 -0.0062,-1.82e-4 -0.08807,-0.06312 -0.181818,-0.139864 z m -0.683753,-5.395357 c 0.469814,-0.244609 0.857209,-0.447569 0.860878,-0.451022 0.0054,-0.0051 -2.179342,-4.226487 -2.907892,-5.618795 -0.174391,-0.333273 -0.182793,-0.344804 -0.23642,-0.324415 -0.112887,0.04292 -1.6481739,0.844299 -1.7092983,0.892209 -0.022144,0.01736 0.02166,0.119844 0.1904535,0.445605 1.7246888,3.328542 2.7749398,5.350773 2.8203108,5.430431 0.03983,0.06994 0.06633,0.0943 0.09187,0.0845 0.01974,-0.0076 0.420286,-0.213908 0.8901,-0.458516 z m 3.901754,-2.025637 c 0.45115,-0.234244 0.844271,-0.442069 0.873601,-0.461833 l 0.05333,-0.03594 -0.109743,-0.214065 c -0.192596,-0.375678 -2.973124,-5.736498 -2.97926,-5.743974 -0.007,-0.0085 -1.662744,0.854768 -1.739035,0.906754 l -0.05274,0.03594 0.540809,1.043609 c 1.863517,3.596059 2.545184,4.895853 2.567484,4.895643 0.01391,-1.36e-4 0.394404,-0.191892 0.845555,-0.426136 z"
         id="path83"
         inkscape:connector-curvature="0" /><rect
         style="fill:#001135;fill-opacity:1"
         id="rect87"
         width="9.477273"
         height="3.2272727"
         x="8.909091"
         y="42.477272" /><rect
         style="fill:#001135;fill-opacity:1"
         id="rect91"
         width="4.9545455"
         height="6.068182"
         x="9.886364"
         y="43.795456" /><rect
         style="fill:#001135;fill-opacity:1"
         id="rect93"
         width="3.3863637"
         height="4"
         x="12.590909"
         y="40.659092" /><rect
         style="fill:#001135;fill-opacity:1"
         id="rect95"
         width="4.181818"
         height="3.1818182"
         x="14.568182"
         y="44.81818" /><rect
         style="fill:#001135;fill-opacity:1"
         id="rect97"
         width="7.181818"
         height="7.318182"
         x="21.545454"
         y="50.159092" /><rect
         style="fill:#001135;fill-opacity:1"
         id="rect99"
         width="7.0067854"
         height="6.8782206"
         x="47.022602"
         y="41.94429" /><rect
         style="fill:#001135;fill-opacity:1;stroke-width:1.06237"
         id="rect101"
         width="8.3888578"
         height="8.01686"
         x="34.712513"
         y="49.258789"
         ry="0" /><rect
         style="fill:#001135;fill-opacity:1"
         id="rect103"
         width="8.3245754"
         height="8.4209986"
         x="50.815266"
         y="27.802153" /><rect
         style="fill:#001135;fill-opacity:1"
         id="rect105"
         width="7.5210447"
         height="7.3603387"
         x="46.861897"
         y="14.656395" /><rect
         style="fill:#001135;fill-opacity:1"
         id="rect147"
         width="9.272727"
         height="7.6363635"
         x="20.818182"
         y="6.5454545" /></g></g><g
     inkscape:groupmode="layer"
     id="layer1"
     inkscape:label="text"
     style="display:inline"
     transform="translate(-3,-3.025)"><text
       xml:space="preserve"
       style="font-style:normal;font-variant:normal;font-weight:normal;font-stretch:normal;font-size:12px;line-height:1.25;font-family:'Nokia Pure Headline';-inkscape-font-specification:'Nokia Pure Headline';fill:#ffffff;fill-opacity:1;stroke:none"
       x="-9.7360945"
       y="26.343147"
       id="text109"
       transform="rotate(-52)"><tspan
         sodipodi:role="line"
         id="tspan107"
         x="-9.7360945"
         y="26.343147">Y</tspan></text><text
       id="text109-4"
       y="-24.353437"
       x="41.307644"
       style="font-style:normal;font-variant:normal;font-weight:normal;font-stretch:normal;font-size:12px;line-height:1.25;font-family:'Nokia Pure Headline';-inkscape-font-specification:'Nokia Pure Headline';fill:#ffffff;fill-opacity:1;stroke:none"
       xml:space="preserve"
       inkscape:transform-center-x="0.71225406"
       inkscape:transform-center-y="-4.5195775"
       transform="rotate(52)"><tspan
         y="-24.353437"
         x="41.307644"
         id="tspan107-3"
         sodipodi:role="line">G</tspan></text><text
       id="text109-42"
       y="22.602015"
       x="15.624337"
       style="font-style:normal;font-variant:normal;font-weight:normal;font-stretch:normal;font-size:12px;line-height:1.25;font-family:'Nokia Pure Headline';-inkscape-font-specification:'Nokia Pure Headline';fill:#ffffff;fill-opacity:1;stroke:none"
       xml:space="preserve"
       inkscape:transform-center-x="7.8503478"
       inkscape:transform-center-y="0.50629407"
       transform="rotate(-22)"><tspan
         y="22.602015"
         x="15.624337"
         id="tspan107-1"
         sodipodi:role="line">A</tspan></text><text
       inkscape:transform-center-y="-5.0891134"
       inkscape:transform-center-x="5.9987722"
       xml:space="preserve"
       style="font-style:normal;font-variant:normal;font-weight:normal;font-stretch:normal;font-size:12px;line-height:1.25;font-family:'Nokia Pure Headline';-inkscape-font-specification:'Nokia Pure Headline';fill:#ffffff;fill-opacity:1;stroke:none"
       x="36.151276"
       y="-0.7177093"
       id="text109-42-4"
       transform="rotate(22)"><tspan
         sodipodi:role="line"
         id="tspan107-1-4"
         x="36.151276"
         y="-0.7177093">N</tspan></text><text
       transform="rotate(51.769654)"
       id="text109-6"
       y="22.180145"
       x="40.871208"
       style="font-style:normal;font-variant:normal;font-weight:normal;font-stretch:normal;font-size:12px;line-height:1.25;font-family:'Nokia Pure Headline';-inkscape-font-specification:'Nokia Pure Headline';display:inline;fill:#ffffff;fill-opacity:1;stroke:none"
       xml:space="preserve"><tspan
         y="22.180145"
         x="40.871208"
         id="tspan107-8"
         sodipodi:role="line">P</tspan></text><text
       transform="rotate(19.769654)"
       inkscape:transform-center-y="-4.8518067"
       inkscape:transform-center-x="6.1922761"
       xml:space="preserve"
       style="font-style:normal;font-variant:normal;font-weight:normal;font-stretch:normal;font-size:12px;line-height:1.25;font-family:'Nokia Pure Headline';-inkscape-font-specification:'Nokia Pure Headline';display:inline;fill:#ffffff;fill-opacity:1;stroke:none"
       x="38.530151"
       y="46.689152"
       id="text109-42-7"><tspan
         sodipodi:role="line"
         id="tspan107-1-6"
         x="38.530151"
         y="46.689152">A</tspan></text><text
       id="text109-42-7-0"
       y="69.909492"
       x="10.556808"
       style="font-style:normal;font-variant:normal;font-weight:normal;font-stretch:normal;font-size:12px;line-height:1.25;font-family:'Nokia Pure Headline';-inkscape-font-specification:'Nokia Pure Headline';display:inline;fill:#ffffff;fill-opacity:1;stroke:none"
       xml:space="preserve"
       inkscape:transform-center-x="7.8246985"
       inkscape:transform-center-y="0.81141726"
       transform="rotate(-24.230346)"><tspan
         y="69.909492"
         x="10.556808"
         id="tspan107-1-6-8"
         sodipodi:role="line">T</tspan></text><text
       transform="rotate(-49.230346)"
       inkscape:transform-center-y="4.0422517"
       inkscape:transform-center-x="6.7486678"
       xml:space="preserve"
       style="font-style:normal;font-variant:normal;font-weight:normal;font-stretch:normal;font-size:12px;line-height:1.25;font-family:'Nokia Pure Headline';-inkscape-font-specification:'Nokia Pure Headline';display:inline;fill:#ffffff;fill-opacity:1;stroke:none"
       x="-5.3849297"
       y="72.655106"
       id="text109-42-7-0-8"><tspan
         sodipodi:role="line"
         id="tspan107-1-6-8-4"
         x="-5.3849297"
         y="72.655106">H</tspan></text><text
       xml:space="preserve"
       style="font-style:normal;font-weight:100;font-size:21.33330000000000126px;line-height:1.25;font-family:'Nokia Pure Headline';display:inline;fill:#001135;fill-opacity:1;stroke:none;-inkscape-font-specification:'Nokia Pure Headline Thin';font-stretch:normal;font-variant:normal;letter-spacing:0.6px"
       x="67.882248"
       y="38.183769"
       id="text1125"><tspan
         sodipodi:role="line"
         id="tspan1123"
         x="67.882248"
         y="38.183769"
         style="font-style:normal;font-variant:normal;font-weight:100;font-stretch:normal;font-family:'Nokia Pure Headline';-inkscape-font-specification:'Nokia Pure Headline Thin';fill:#001135;fill-opacity:1;">YANG Path Exporter </tspan></text></g></svg>
