<?xml version="1.0" encoding="UTF-8" standalone="no"?>
<svg
   xmlns:dc="http://purl.org/dc/elements/1.1/"
   xmlns:cc="http://creativecommons.org/ns#"
   xmlns:rdf="http://www.w3.org/1999/02/22-rdf-syntax-ns#"
   xmlns:svg="http://www.w3.org/2000/svg"
   xmlns="http://www.w3.org/2000/svg"
   xmlns:sodipodi="http://sodipodi.sourceforge.net/DTD/sodipodi-0.dtd"
   xmlns:inkscape="http://www.inkscape.org/namespaces/inkscape"
   height="129.80576"
   width="553.3576"
   inkscape:version="1.0rc1 (09960d6, 2020-04-09)"
   sodipodi:docname="yangpath_logo_paths.svg"
   xml:space="preserve"
   viewBox="0 0 553.35759 129.80575"
   version="1.1"
   id="Layer_1_1_"><metadata
     id="metadata55"><rdf:RDF><cc:Work
         rdf:about=""><dc:format>image/svg+xml</dc:format><dc:type
           rdf:resource="http://purl.org/dc/dcmitype/StillImage" /><dc:title /></cc:Work></rdf:RDF></metadata><defs
     id="defs53" /><sodipodi:namedview
     inkscape:current-layer="layer1"
     inkscape:window-maximized="0"
     inkscape:window-y="74"
     inkscape:window-x="1505"
     inkscape:cy="-77.433903"
     inkscape:cx="-138.87646"
     inkscape:zoom="0.5"
     showgrid="false"
     id="namedview51"
     inkscape:window-height="1239"
     inkscape:window-width="2187"
     inkscape:pageshadow="2"
     inkscape:pageopacity="0"
     guidetolerance="10"
     gridtolerance="10"
     objecttolerance="10"
     borderopacity="1"
     bordercolor="#666666"
     pagecolor="#ffffff"
     inkscape:document-rotation="0" /><g
     transform="translate(150.16147,32.90338)"
     style="display:inline"
     inkscape:label="Base"
     id="layer2"
     inkscape:groupmode="layer"><g
       style="fill:#001135;fill-opacity:1"
       id="g48"
       transform="matrix(2.24,0,0,2.24,-156.88147,-39.67938)"><path
         style="fill:#001135;fill-opacity:1"
         inkscape:connector-curvature="0"
         id="path10"
         d="m 15,32 c 0,-1.483 0.211,-2.915 0.569,-4.287 L 4.132,23.997 C 3.4,26.541 3,29.224 3,32 c 0,2.776 0.4,5.459 1.132,8.003 L 15.569,36.287 C 15.211,34.915 15,33.483 15,32 Z m -3.233,0.787 C 11.52,33.548 10.99,34.168 10.276,34.532 9.848,34.75 9.384,34.86 8.917,34.86 8.605,34.86 8.292,34.811 7.986,34.712 7.224,34.465 6.604,33.935 6.24,33.221 5.877,32.507 5.812,31.694 6.06,30.932 6.307,30.17 6.837,29.55 7.551,29.186 8.264,28.824 9.076,28.76 9.84,29.006 c 0.762,0.248 1.382,0.777 1.746,1.491 0.364,0.714 0.429,1.527 0.181,2.29 z" /><path
         style="fill:#001135;fill-opacity:1"
         inkscape:connector-curvature="0"
         id="path12"
         d="M 16.184,38.19 4.745,41.907 c 1.878,5.15 5.18,9.617 9.423,12.936 l 7.054,-9.709 C 18.995,43.305 17.254,40.915 16.184,38.19 Z m -3.811,11.557 -3.091,-5.953 1.775,-0.922 3.091,5.953 z m 3.969,-2.06 -3.091,-5.953 1.775,-0.922 3.091,5.953 z" /><path
         style="fill:#001135;fill-opacity:1"
         inkscape:connector-curvature="0"
         id="path14"
         d="m 9.223,30.908 v 0 c -0.103,-0.033 -0.207,-0.05 -0.311,-0.05 -0.155,0 -0.31,0.037 -0.452,0.109 -0.238,0.121 -0.415,0.328 -0.497,0.582 -0.083,0.255 -0.062,0.525 0.06,0.763 0.121,0.238 0.328,0.415 0.582,0.497 0.258,0.084 0.527,0.061 0.763,-0.06 C 9.606,32.628 9.783,32.421 9.865,32.168 9.948,31.913 9.927,31.643 9.805,31.404 9.683,31.165 9.477,30.99 9.223,30.908 Z" /><path
         style="fill:#001135;fill-opacity:1"
         inkscape:connector-curvature="0"
         id="path16"
         d="M 15.779,56.027 C 20.153,58.99 25.377,60.783 31,60.974 V 48.949 c -2.991,-0.175 -5.774,-1.118 -8.155,-2.648 z m 10.716,-4.541 c 0.648,0.471 1.074,1.166 1.199,1.958 0.126,0.791 -0.064,1.584 -0.536,2.232 -0.586,0.807 -1.502,1.234 -2.431,1.234 -0.61,0 -1.228,-0.186 -1.758,-0.57 -0.649,-0.472 -1.075,-1.167 -1.2,-1.959 -0.126,-0.791 0.064,-1.584 0.536,-2.232 0.471,-0.648 1.165,-1.074 1.957,-1.199 0.789,-0.125 1.585,0.065 2.233,0.536 z" /><path
         style="fill:#001135;fill-opacity:1"
         inkscape:connector-curvature="0"
         id="path18"
         d="m 25.541,54.501 c 0.324,-0.446 0.225,-1.073 -0.222,-1.397 -0.173,-0.125 -0.376,-0.19 -0.586,-0.19 -0.052,0 -0.105,0.004 -0.158,0.012 -0.264,0.042 -0.495,0.184 -0.651,0.399 l -0.001,10e-4 c -0.156,0.216 -0.22,0.48 -0.179,0.744 0.042,0.264 0.185,0.496 0.4,0.653 0.446,0.322 1.073,0.224 1.397,-0.222 z" /><path
         id="circle20"
         style="fill:#001135;fill-opacity:1"
         d="m 29,39 a 1,1 0 0 1 -1,1 1,1 0 0 1 -1,-1 1,1 0 0 1 1,-1 1,1 0 0 1 1,1"
         inkscape:connector-curvature="0" /><path
         style="fill:#001135;fill-opacity:1"
         sodipodi:nodetypes="ccccccccccccccc"
         inkscape:connector-curvature="0"
         id="path22"
         d="M 48.221,7.973 C 43.847,5.01 38.623,3.217 33,3.025 V 15.05 c 2.991,0.175 5.774,1.118 8.155,2.648 z m -10.774,-1.868 6,3 v 0 z m -1.999,4.001 v 0 l 6,3 v 0 z" /><path
         style="fill:#001135;fill-opacity:1"
         inkscape:connector-curvature="0"
         id="path24"
         d="m 47.816,25.81 11.439,-3.717 c -1.878,-5.15 -5.18,-9.617 -9.423,-12.936 l -7.054,9.709 c 2.227,1.829 3.968,4.219 5.038,6.944 z m 0.271,-8.628 c 0.364,-0.714 0.984,-1.243 1.747,-1.49 0.762,-0.249 1.576,-0.183 2.288,0.18 0.714,0.364 1.244,0.984 1.491,1.746 0.248,0.762 0.184,1.575 -0.18,2.289 -0.364,0.714 -0.984,1.243 -1.746,1.491 -0.306,0.099 -0.619,0.148 -0.931,0.148 -0.467,0 -0.931,-0.11 -1.358,-0.328 -0.714,-0.364 -1.244,-0.984 -1.491,-1.747 -0.248,-0.762 -0.183,-1.575 0.18,-2.289 z" /><path
         style="fill:#001135;fill-opacity:1"
         sodipodi:nodetypes="ccccccccccccccc"
         inkscape:connector-curvature="0"
         id="path26"
         d="M 21.221,18.865 14.167,9.156 C 9.925,12.475 6.622,16.942 4.744,22.092 l 11.439,3.717 c 1.071,-2.724 2.812,-5.114 5.038,-6.944 z M 9.056,18.817 13.763,14.038 v 0 z m 3.186,3.138 4.707,-4.779 v 0 z" /><path
         style="fill:#001135;fill-opacity:1"
         inkscape:connector-curvature="0"
         id="path28"
         d="m 50.307,19.436 c 0.237,0.12 0.509,0.143 0.762,0.06 h 10e-4 c 0.254,-0.082 0.461,-0.259 0.582,-0.497 0.121,-0.238 0.143,-0.509 0.06,-0.763 -0.082,-0.254 -0.259,-0.461 -0.497,-0.582 -0.143,-0.072 -0.297,-0.109 -0.452,-0.109 -0.104,0 -0.208,0.017 -0.31,0.05 -0.255,0.082 -0.462,0.259 -0.583,0.496 -0.121,0.238 -0.143,0.509 -0.06,0.763 0.082,0.253 0.258,0.46 0.497,0.582 z" /><path
         id="circle30"
         style="fill:#001135;fill-opacity:1"
         d="M 28.090909,10 A 3.090909,3 0 0 1 25,13 3.090909,3 0 0 1 21.909091,10 3.090909,3 0 0 1 25,7 a 3.090909,3 0 0 1 3.090909,3"
         inkscape:connector-curvature="0" /><path
         inkscape:connector-curvature="0"
         style="fill:#001135;fill-opacity:1"
         id="path32"
         d="M 31,15.051 V 3.025 C 25.377,3.217 20.153,5.01 15.779,7.973 l 7.066,9.726 C 25.226,16.169 28.009,15.226 31,15.051 Z M 25,7 c 1.654,0 3,1.346 3,3 0,1.654 -1.346,3 -3,3 -1.654,0 -3,-1.346 -3,-3 0,-1.654 1.346,-3 3,-3 z" /><path
         style="fill:#001135;fill-opacity:1"
         inkscape:connector-curvature="0"
         id="path34"
         d="M 31.643,33.057 29.748,31.162 C 27.976,29.39 27,27.034 27,24.527 27,21.542 28.423,18.811 30.732,17.064 23.053,17.711 17,24.156 17,32 c 0,7.061 4.909,12.982 11.49,14.568 l 1.454,-0.831 C 32.446,44.308 34,41.629 34,38.748 34,36.599 33.163,34.577 31.643,33.057 Z M 28,42 c -1.654,0 -3,-1.346 -3,-3 0,-1.654 1.346,-3 3,-3 1.654,0 3,1.346 3,3 0,1.654 -1.346,3 -3,3 z" /><path
         style="fill:#001135;fill-opacity:1"
         inkscape:connector-curvature="0"
         id="path36"
         d="m 33,48.949 v 12.025 c 5.623,-0.192 10.847,-1.985 15.221,-4.947 l -7.066,-9.726 c -2.381,1.53 -5.164,2.473 -8.155,2.648 z m 9.813,7.201 -6.617,1.1 -0.328,-1.973 6.617,-1.1 z m -0.733,-4.411 -6.617,1.1 -0.328,-1.973 6.617,-1.1 z" /><path
         style="fill:#001135;fill-opacity:1"
         inkscape:connector-curvature="0"
         id="path38"
         d="m 42.779,45.135 7.054,9.709 c 4.242,-3.319 7.545,-7.786 9.423,-12.936 L 47.816,38.19 c -1.07,2.725 -2.811,5.115 -5.037,6.945 z m 6.052,-1.878 c 1.338,-0.972 3.219,-0.674 4.191,0.664 0.971,1.339 0.673,3.219 -0.665,4.19 -0.519,0.376 -1.129,0.573 -1.757,0.573 -0.158,0 -0.316,-0.013 -0.476,-0.038 -0.791,-0.125 -1.486,-0.551 -1.957,-1.199 -0.472,-0.648 -0.662,-1.441 -0.536,-2.232 0.126,-0.792 0.552,-1.487 1.2,-1.958 z" /><path
         style="fill:#001135;fill-opacity:1"
         inkscape:connector-curvature="0"
         id="path40"
         d="M 47,32 C 47,24.628 41.65,18.495 34.631,17.246 l -1.156,0.495 C 30.757,18.906 29,21.57 29,24.527 c 0,1.973 0.768,3.826 2.162,5.221 l 1.895,1.895 C 34.955,33.54 36,36.064 36,38.748 c 0,3.299 -1.645,6.37 -4.325,8.235 C 31.784,46.986 31.89,47 32,47 40.271,47 47,40.271 47,32 Z M 36,28 c -1.654,0 -3,-1.346 -3,-3 0,-1.654 1.346,-3 3,-3 1.654,0 3,1.346 3,3 0,1.654 -1.346,3 -3,3 z" /><path
         style="fill:#001135;fill-opacity:1"
         inkscape:connector-curvature="0"
         id="path42"
         d="M 59.868,23.997 48.431,27.713 C 48.789,29.085 49,30.517 49,32 c 0,1.483 -0.211,2.915 -0.569,4.287 l 11.437,3.716 C 60.6,37.459 61,34.776 61,32 61,29.224 60.6,26.541 59.868,23.997 Z m -6.978,11.149 -1.979,-0.299 0.999,-6.633 1.979,0.299 z m 4.422,0.666 -1.979,-0.299 0.999,-6.633 1.979,0.299 z" /><path
         style="fill:#001135;fill-opacity:1"
         inkscape:connector-curvature="0"
         id="path44"
         d="m 50.438,46.672 c 0.263,0.04 0.527,-0.022 0.743,-0.179 0.446,-0.324 0.546,-0.951 0.222,-1.397 -0.195,-0.269 -0.501,-0.411 -0.811,-0.411 -0.203,0 -0.409,0.062 -0.587,0.19 -0.215,0.156 -0.357,0.389 -0.399,0.652 -0.041,0.264 0.022,0.528 0.179,0.744 0.157,0.216 0.39,0.359 0.653,0.401 z" /><path
         id="circle46"
         style="fill:#001135;fill-opacity:1"
         d="m 37,25 a 1,1 0 0 1 -1,1 1,1 0 0 1 -1,-1 1,1 0 0 1 1,-1 1,1 0 0 1 1,1"
         inkscape:connector-curvature="0" /><path
         id="rect57"
         style="fill:#001135;fill-opacity:1"
         d="m 4.454545,27.90909 h 8.909091 v 8.090909 H 4.454545 Z"
         inkscape:connector-curvature="0" /><path
         inkscape:connector-curvature="0"
         id="path81"
         d="M 13.979288,54.678192 C 12.196484,53.213989 11.022786,52.065907 9.7431155,50.534476 7.8862762,48.312324 6.3694551,45.821568 5.2530065,43.161313 5.0222408,42.611448 4.7710223,41.956564 4.7802436,41.9289 4.7865636,41.90995 16.163172,38.199888 16.17426,38.213163 c 0.0023,0.0027 0.08399,0.194172 0.181577,0.425422 0.632969,1.49996 1.555193,3.011907 2.602746,4.267093 0.505773,0.606021 1.377485,1.492674 1.936422,1.969611 0.159895,0.136437 0.287735,0.260683 0.284091,0.276103 -0.008,0.03366 -7.001679,9.667196 -7.01799,9.666959 -0.0062,-9.1e-5 -0.08807,-0.06316 -0.181818,-0.140159 z m -0.682235,-5.39523 c 0.468979,-0.244155 0.855886,-0.447048 0.859792,-0.450872 0.0082,-0.0081 -3.059381,-5.922259 -3.087132,-5.951853 -0.01017,-0.01084 -0.418613,0.187795 -0.907657,0.441414 -0.699028,0.362517 -0.8863296,0.468795 -0.8758778,0.496985 0.017378,0.04687 3.0073658,5.815074 3.0501328,5.884232 0.02175,0.03517 0.04536,0.04807 0.07039,0.03846 0.02072,-0.0079 0.421375,-0.214216 0.890354,-0.458371 z m 3.939013,-2.042104 c 0.483089,-0.25 0.878624,-0.466869 0.878965,-0.481931 4.7e-4,-0.02077 -3.050591,-5.922337 -3.079809,-5.957172 -0.0034,-0.004 -0.40622,0.200539 -0.895243,0.454545 -0.642643,0.3338 -0.887395,0.471606 -0.882866,0.497091 0.0094,0.0529 3.072373,5.952449 3.087529,5.946847 0.0072,-0.0027 0.408335,-0.20938 0.891424,-0.45938 z"
         style="fill:#001135;fill-opacity:1;stroke-width:0.0227273" /><path
         inkscape:connector-curvature="0"
         id="path83"
         d="M 13.979288,54.67866 C 12.508464,53.47472 11.49868,52.521454 10.420933,51.319466 8.2487937,48.896928 6.501357,46.138475 5.2528707,43.161313 5.0219338,42.610617 4.7710445,41.956498 4.7802117,41.928996 c 0.00654,-0.01962 11.3818963,-3.728803 11.3950843,-3.715614 0.003,0.003 0.07298,0.168983 0.155431,0.368771 0.197303,0.47809 0.704538,1.495088 0.980318,1.965523 0.559214,0.953925 1.19943,1.847158 1.907186,2.660915 0.331189,0.380792 1.293057,1.337871 1.664466,1.65618 0.165625,0.141946 0.301136,0.267114 0.301136,0.278153 0,0.01104 -0.57017,0.805133 -1.267045,1.764655 -0.696875,0.959522 -2.274432,3.132093 -3.505682,4.827935 -1.23125,1.695842 -2.24375,3.083197 -2.25,3.08301 -0.0062,-1.82e-4 -0.08807,-0.06312 -0.181818,-0.139864 z m -0.683753,-5.395357 c 0.469814,-0.244609 0.857209,-0.447569 0.860878,-0.451022 0.0054,-0.0051 -2.179342,-4.226487 -2.907892,-5.618795 -0.174391,-0.333273 -0.182793,-0.344804 -0.23642,-0.324415 -0.112887,0.04292 -1.6481739,0.844299 -1.7092983,0.892209 -0.022144,0.01736 0.02166,0.119844 0.1904535,0.445605 1.7246888,3.328542 2.7749398,5.350773 2.8203108,5.430431 0.03983,0.06994 0.06633,0.0943 0.09187,0.0845 0.01974,-0.0076 0.420286,-0.213908 0.8901,-0.458516 z m 3.901754,-2.025637 c 0.45115,-0.234244 0.844271,-0.442069 0.873601,-0.461833 l 0.05333,-0.03594 -0.109743,-0.214065 c -0.192596,-0.375678 -2.973124,-5.736498 -2.97926,-5.743974 -0.007,-0.0085 -1.662744,0.854768 -1.739035,0.906754 l -0.05274,0.03594 0.540809,1.043609 c 1.863517,3.596059 2.545184,4.895853 2.567484,4.895643 0.01391,-1.36e-4 0.394404,-0.191892 0.845555,-0.426136 z"
         style="fill:#001135;fill-opacity:1;stroke-width:0.0227273" /><path
         id="rect87"
         style="fill:#001135;fill-opacity:1"
         d="m 8.909091,42.477272 h 9.477273 v 3.227273 H 8.909091 Z"
         inkscape:connector-curvature="0" /><path
         id="rect91"
         style="fill:#001135;fill-opacity:1"
         d="m 9.886364,43.795456 h 4.954545 v 6.068182 H 9.886364 Z"
         inkscape:connector-curvature="0" /><path
         id="rect93"
         style="fill:#001135;fill-opacity:1"
         d="m 12.590909,40.659092 h 3.386364 v 4 h -3.386364 z"
         inkscape:connector-curvature="0" /><path
         id="rect95"
         style="fill:#001135;fill-opacity:1"
         d="M 14.568182,44.81818 H 18.75 v 3.181818 h -4.181818 z"
         inkscape:connector-curvature="0" /><path
         id="rect97"
         style="fill:#001135;fill-opacity:1"
         d="m 21.545454,50.159092 h 7.181818 v 7.318182 h -7.181818 z"
         inkscape:connector-curvature="0" /><path
         id="rect99"
         style="fill:#001135;fill-opacity:1"
         d="m 47.022602,41.94429 h 7.006785 v 6.878221 h -7.006785 z"
         inkscape:connector-curvature="0" /><path
         id="rect101"
         style="fill:#001135;fill-opacity:1;stroke-width:1.06237"
         d="m 34.712513,49.258789 h 8.388858 v 8.01686 h -8.388858 z"
         inkscape:connector-curvature="0" /><path
         id="rect103"
         style="fill:#001135;fill-opacity:1"
         d="m 50.815266,27.802153 h 8.324575 v 8.420998 h -8.324575 z"
         inkscape:connector-curvature="0" /><path
         id="rect105"
         style="fill:#001135;fill-opacity:1"
         d="m 46.861897,14.656395 h 7.521044 v 7.360339 h -7.521044 z"
         inkscape:connector-curvature="0" /><path
         id="rect147"
         style="fill:#001135;fill-opacity:1"
         d="m 20.818182,6.5454545 h 9.272727 v 7.6363635 h -9.272727 z"
         inkscape:connector-curvature="0" /></g></g><g
     transform="translate(150.16147,32.90338)"
     style="display:inline"
     inkscape:label="text"
     id="layer1"
     inkscape:groupmode="layer"><g
       aria-label="Y"
       transform="matrix(1.3790818,-1.7651441,1.7651441,1.3790818,-156.88147,-39.67938)"
       id="text109"
       style="font-style:normal;font-variant:normal;font-weight:normal;font-stretch:normal;font-size:12px;line-height:1.25;font-family:'Nokia Pure Headline';-inkscape-font-specification:'Nokia Pure Headline';fill:#ffffff;fill-opacity:1;stroke:none"><path
         d="m -6.9880945,22.527147 -2.688,-4.62 h 1.224 l 2.076,3.624 2.052,-3.624 h 1.14 l -2.7,4.62 v 3.816 h -1.104 z"
         id="path904"
         inkscape:connector-curvature="0" /></g><g
       aria-label="G"
       transform="matrix(1.3790818,1.7651441,-1.7651441,1.3790818,-156.88147,-39.67938)"
       id="text109-4"
       style="font-style:normal;font-variant:normal;font-weight:normal;font-stretch:normal;font-size:12px;line-height:1.25;font-family:'Nokia Pure Headline';-inkscape-font-specification:'Nokia Pure Headline';fill:#ffffff;fill-opacity:1;stroke:none"
       inkscape:transform-center-x="1.5954389"
       inkscape:transform-center-y="-10.123855"><path
         d="m 47.379644,-27.869437 h -1.512 v -0.984 h 2.604 v 4.176 q -0.108,0.06 -0.348,0.144 -0.228,0.084 -0.588,0.168 -0.348,0.084 -0.828,0.144 -0.468,0.06 -1.056,0.06 -0.972,0 -1.692,-0.3 -0.708,-0.312 -1.188,-0.888 -0.48,-0.576 -0.72,-1.392 -0.228,-0.816 -0.228,-1.824 0,-0.972 0.228,-1.776 0.24,-0.816 0.708,-1.404 0.468,-0.588 1.164,-0.912 0.696,-0.324 1.632,-0.324 0.864,0 1.56,0.24 0.696,0.24 1.2,0.66 l -0.576,0.804 q -0.312,-0.24 -0.852,-0.456 -0.54,-0.216 -1.332,-0.216 -0.648,0 -1.128,0.24 -0.468,0.24 -0.78,0.684 -0.312,0.432 -0.468,1.068 -0.156,0.624 -0.156,1.392 0,0.78 0.156,1.404 0.156,0.624 0.48,1.068 0.324,0.444 0.816,0.684 0.504,0.24 1.2,0.24 0.612,0 1.008,-0.06 0.408,-0.072 0.696,-0.168 z"
         id="path907"
         inkscape:connector-curvature="0" /></g><g
       aria-label="A"
       transform="matrix(2.0768918,-0.83911877,0.83911877,2.0768918,-156.88147,-39.67938)"
       id="text109-42"
       style="font-style:normal;font-variant:normal;font-weight:normal;font-stretch:normal;font-size:12px;line-height:1.25;font-family:'Nokia Pure Headline';-inkscape-font-specification:'Nokia Pure Headline';fill:#ffffff;fill-opacity:1;stroke:none"
       inkscape:transform-center-x="17.584774"
       inkscape:transform-center-y="1.134098"><path
         d="m 20.592337,20.442015 h -3.144 l -0.696,2.16 h -1.056 l 2.784,-8.436 h 1.164 l 2.796,8.436 h -1.152 z m -2.832,-0.972 h 2.52 l -1.248,-3.9 z"
         id="path910"
         inkscape:connector-curvature="0" /></g><g
       aria-label="N"
       transform="matrix(2.0768918,0.83911877,-0.83911877,2.0768918,-156.88147,-39.67938)"
       id="text109-42-4"
       style="font-style:normal;font-variant:normal;font-weight:normal;font-stretch:normal;font-size:12px;line-height:1.25;font-family:'Nokia Pure Headline';-inkscape-font-specification:'Nokia Pure Headline';fill:#ffffff;fill-opacity:1;stroke:none"
       inkscape:transform-center-x="13.437246"
       inkscape:transform-center-y="-11.399614"><path
         d="m 42.019276,-9.1537093 h 1.08 v 8.436 h -1.08 l -3.984,-6.54 v 6.54 h -1.08 v -8.436 h 1.152 l 3.912,6.432 z"
         id="path913"
         inkscape:connector-curvature="0" /></g><g
       aria-label="P"
       transform="matrix(1.386167,1.7595855,-1.7595855,1.386167,-156.88147,-39.67938)"
       id="text109-6"
       style="font-style:normal;font-variant:normal;font-weight:normal;font-stretch:normal;font-size:12px;line-height:1.25;font-family:'Nokia Pure Headline';-inkscape-font-specification:'Nokia Pure Headline';display:inline;fill:#ffffff;fill-opacity:1;stroke:none"><path
         d="m 45.767208,16.384145 q 0,-0.78 -0.468,-1.224 -0.468,-0.456 -1.284,-0.456 h -1.26 v 3.36 h 1.152 q 0.9,0 1.38,-0.444 0.48,-0.456 0.48,-1.236 z m 1.104,0 q 0,0.432 -0.156,0.9 -0.144,0.468 -0.492,0.864 -0.348,0.384 -0.912,0.636 -0.552,0.24 -1.38,0.24 h -1.176 v 3.156 h -1.08 v -8.436 h 2.364 q 0.78,0 1.32,0.252 0.54,0.24 0.876,0.636 0.336,0.384 0.48,0.852 0.156,0.468 0.156,0.9 z"
         id="path916"
         inkscape:connector-curvature="0" /></g><g
       aria-label="A"
       transform="matrix(2.1079745,0.75765662,-0.75765662,2.1079745,-156.88147,-39.67938)"
       id="text109-42-7"
       style="font-style:normal;font-variant:normal;font-weight:normal;font-stretch:normal;font-size:12px;line-height:1.25;font-family:'Nokia Pure Headline';-inkscape-font-specification:'Nokia Pure Headline';display:inline;fill:#ffffff;fill-opacity:1;stroke:none"
       inkscape:transform-center-x="13.870695"
       inkscape:transform-center-y="-10.868046"><path
         d="m 43.498151,44.529152 h -3.144 l -0.696,2.16 h -1.056 l 2.784,-8.436 h 1.164 l 2.796,8.436 h -1.152 z m -2.832,-0.972 h 2.52 l -1.248,-3.9 z"
         id="path919"
         inkscape:connector-curvature="0" /></g><g
       aria-label="T"
       transform="matrix(2.0426625,-0.91930958,0.91930958,2.0426625,-156.88147,-39.67938)"
       id="text109-42-7-0"
       style="font-style:normal;font-variant:normal;font-weight:normal;font-stretch:normal;font-size:12px;line-height:1.25;font-family:'Nokia Pure Headline';-inkscape-font-specification:'Nokia Pure Headline';display:inline;fill:#ffffff;fill-opacity:1;stroke:none"
       inkscape:transform-center-x="17.527319"
       inkscape:transform-center-y="1.8175784"><path
         d="m 13.292808,62.469492 h -2.556 v -0.996 h 6.216 v 0.996 h -2.556 v 7.44 h -1.104 z"
         id="path922"
         inkscape:connector-curvature="0" /></g><g
       aria-label="H"
       transform="matrix(1.4627639,-1.696444,1.696444,1.4627639,-156.88147,-39.67938)"
       id="text109-42-7-0-8"
       style="font-style:normal;font-variant:normal;font-weight:normal;font-stretch:normal;font-size:12px;line-height:1.25;font-family:'Nokia Pure Headline';-inkscape-font-specification:'Nokia Pure Headline';display:inline;fill:#ffffff;fill-opacity:1;stroke:none"
       inkscape:transform-center-x="15.117003"
       inkscape:transform-center-y="9.054647"><path
         d="M 0.41107034,64.219106 H 1.5150703 v 8.436 H 0.41107034 v -4.008 H -3.4769297 v 4.008 h -1.104 v -8.436 h 1.104 v 3.432 h 3.88800004 z"
         id="path925"
         inkscape:connector-curvature="0" /></g><g
       aria-label="YANG Path Exporter "
       id="text1125"
       style="font-style:normal;font-variant:normal;font-weight:100;font-stretch:normal;font-size:21.3333px;line-height:1.25;font-family:'Nokia Pure Headline';-inkscape-font-specification:'Nokia Pure Headline Thin';letter-spacing:0.6px;display:inline;fill:#001135;fill-opacity:1;stroke:none"
       transform="matrix(2.24,0,0,2.24,-156.88147,-39.67938)"><path
         d="m 69.098246,23.18646 4.07466,7.594654 4.13866,-7.594654 h 1.002665 l -4.714659,8.490653 v 6.506656 H 72.74624 V 31.698446 L 68.074248,23.18646 Z"
         style="font-style:normal;font-variant:normal;font-weight:100;font-stretch:normal;font-family:'Nokia Pure Headline';-inkscape-font-specification:'Nokia Pure Headline Thin';fill:#001135;fill-opacity:1"
         id="path928"
         inkscape:connector-curvature="0" /><path
         d="m 86.921886,33.810443 h -6.485323 l -1.429331,4.373326 H 78.0899 L 83.124559,23.18646 h 1.151998 l 5.055992,14.997309 h -0.959998 z m -0.255999,-0.810666 -2.986662,-8.938652 -2.965329,8.938652 z"
         style="font-style:normal;font-variant:normal;font-weight:100;font-stretch:normal;font-family:'Nokia Pure Headline';-inkscape-font-specification:'Nokia Pure Headline Thin';fill:#001135;fill-opacity:1"
         id="path930"
         inkscape:connector-curvature="0" /><path
         d="M 92.556879,24.615791 V 38.183769 H 91.703547 V 23.18646 h 0.959999 l 8.063984,13.589311 V 23.18646 h 0.85333 v 14.997309 h -0.93866 z"
         style="font-style:normal;font-variant:normal;font-weight:100;font-stretch:normal;font-family:'Nokia Pure Headline';-inkscape-font-specification:'Nokia Pure Headline Thin';fill:#001135;fill-opacity:1"
         id="path932"
         inkscape:connector-curvature="0" /><path
         d="m 105.79119,30.759781 q 0,1.919997 0.40533,3.242661 0.40534,1.322665 1.152,2.13333 0.74667,0.789333 1.81333,1.151999 1.06667,0.341332 2.38933,0.341332 0.40533,0 0.85333,-0.04267 0.448,-0.064 0.87467,-0.149333 0.42666,-0.106667 0.78933,-0.213333 0.36267,-0.106667 0.61867,-0.213333 v -5.375992 h -3.56266 v -0.767999 h 4.41599 V 37.3731 q -0.192,0.128 -0.59733,0.319999 -0.384,0.170667 -0.93867,0.341333 -0.55466,0.170667 -1.23733,0.277333 -0.68267,0.128 -1.472,0.128 -3.15733,0 -4.79999,-1.898664 -1.62133,-1.919997 -1.62133,-5.781324 0,-1.685331 0.384,-3.135995 0.40533,-1.450664 1.19466,-2.517329 0.78933,-1.066665 1.96267,-1.663998 1.17333,-0.597332 2.73066,-0.597332 1.408,0 2.43199,0.319999 1.024,0.298666 1.87734,0.981332 l -0.448,0.703999 q -0.21334,-0.170666 -0.53334,-0.383999 -0.29866,-0.213333 -0.74666,-0.384 -0.448,-0.192 -1.06667,-0.319999 -0.61866,-0.128 -1.42933,-0.128 -1.13066,0 -2.11199,0.405333 -0.98134,0.383999 -1.728,1.258664 -0.74667,0.853332 -1.17333,2.218663 -0.42667,1.343998 -0.42667,3.242662 z"
         style="font-style:normal;font-variant:normal;font-weight:100;font-stretch:normal;font-family:'Nokia Pure Headline';-inkscape-font-specification:'Nokia Pure Headline Thin';fill:#001135;fill-opacity:1"
         id="path934"
         inkscape:connector-curvature="0" /><path
         d="m 129.53349,31.314447 q 1.89866,0 2.90133,-0.874666 1.00266,-0.874665 1.00266,-2.751995 0,-2.047997 -0.98133,-2.858662 -0.98133,-0.831999 -2.73066,-0.831999 h -3.264 v 7.317322 z m -3.94666,-8.127987 h 4.20266 q 2.26133,0 3.41332,1.173331 1.152,1.151998 1.152,3.327995 0,0.981332 -0.29866,1.791997 -0.29867,0.810665 -0.896,1.407998 -0.576,0.575999 -1.472,0.917332 -0.896,0.319999 -2.09066,0.319999 h -3.136 v 6.058657 h -0.87466 z"
         style="font-style:normal;font-variant:normal;font-weight:100;font-stretch:normal;font-family:'Nokia Pure Headline';-inkscape-font-specification:'Nokia Pure Headline Thin';fill:#001135;fill-opacity:1"
         id="path936"
         inkscape:connector-curvature="0" /><path
         d="m 135.79281,35.218441 q 0,-1.535998 0.96,-2.474663 0.98133,-0.959999 2.92266,-0.959999 1.152,0 2.00533,0.149333 0.85334,0.128 1.28,0.234667 v -1.151998 q 0,-0.810666 -0.21333,-1.365332 -0.21333,-0.554665 -0.61867,-0.874665 -0.384,-0.341333 -0.93866,-0.490666 -0.55467,-0.149333 -1.216,-0.149333 -0.61867,0 -1.10933,0.08533 -0.49067,0.08533 -0.896,0.213333 -0.384,0.106667 -0.68267,0.256 -0.29866,0.128 -0.53333,0.255999 l -0.29867,-0.703998 q 0.21334,-0.128 0.55467,-0.277333 0.34133,-0.149333 0.78933,-0.277333 0.448,-0.149333 1.00267,-0.234666 0.576,-0.106667 1.23733,-0.106667 1.83466,0 2.77333,0.853332 0.96,0.853332 0.96,2.666662 v 7.317322 h -0.81067 v -2.026663 q -0.36266,0.661332 -0.85333,1.087998 -0.49067,0.405333 -1.024,0.661332 -0.53333,0.234667 -1.06666,0.32 -0.512,0.106666 -0.91734,0.106666 -0.61866,0 -1.21599,-0.170666 -0.59734,-0.170666 -1.06667,-0.533333 -0.448,-0.383999 -0.74666,-0.959998 -0.27734,-0.597332 -0.27734,-1.450664 z m 3.456,2.367996 q 0.78933,0 1.47199,-0.298666 0.68267,-0.32 1.17334,-0.789332 0.49066,-0.490666 0.768,-1.066665 0.29866,-0.597333 0.29866,-1.173332 v -1.322664 q -0.55466,-0.128 -1.36533,-0.256 -0.78933,-0.128 -1.81333,-0.128 -1.664,0 -2.41066,0.703999 -0.74667,0.682666 -0.74667,1.962664 0,1.237331 0.72533,1.81333 0.74667,0.554666 1.89867,0.554666 z"
         style="font-style:normal;font-variant:normal;font-weight:100;font-stretch:normal;font-family:'Nokia Pure Headline';-inkscape-font-specification:'Nokia Pure Headline Thin';fill:#001135;fill-opacity:1"
         id="path938"
         inkscape:connector-curvature="0" /><path
         d="m 148.13913,28.349118 h -2.21867 v -0.746665 h 2.21867 v -3.178662 l 0.81066,-0.213333 v 3.391995 h 3.24266 v 0.746665 h -3.24266 v 6.613323 q 0,0.789332 0.14934,1.301331 0.14933,0.490666 0.44799,0.789332 0.29867,0.277333 0.74667,0.384 0.46933,0.106666 1.088,0.106666 0.32,0 0.85333,-0.106666 l 0.10667,0.682665 q -0.17067,0.064 -0.55467,0.106667 -0.36267,0.064 -0.78933,0.064 -0.81067,0 -1.36533,-0.213333 -0.53333,-0.234667 -0.87467,-0.639999 -0.32,-0.405333 -0.46933,-0.959999 -0.14933,-0.554666 -0.14933,-1.194665 z"
         style="font-style:normal;font-variant:normal;font-weight:100;font-stretch:normal;font-family:'Nokia Pure Headline';-inkscape-font-specification:'Nokia Pure Headline Thin';fill:#001135;fill-opacity:1"
         id="path940"
         inkscape:connector-curvature="0" /><path
         d="m 155.94545,38.183769 h -0.81067 V 22.183794 h 0.81067 v 7.765322 q 1.216,-2.623996 3.90399,-2.623996 1.728,0 2.66666,1.002665 0.93867,1.002665 0.93867,2.943995 v 6.911989 h -0.81067 v -6.805322 q 0,-1.770664 -0.78933,-2.51733 -0.78933,-0.767999 -2.06933,-0.767999 -0.93866,0 -1.664,0.426666 -0.70399,0.405333 -1.19466,1.066665 -0.46933,0.639999 -0.72533,1.429332 -0.256,0.789332 -0.256,1.55733 z"
         style="font-style:normal;font-variant:normal;font-weight:100;font-stretch:normal;font-family:'Nokia Pure Headline';-inkscape-font-specification:'Nokia Pure Headline Thin';fill:#001135;fill-opacity:1"
         id="path942"
         inkscape:connector-curvature="0" /><path
         d="m 173.58675,23.18646 h 7.87199 v 0.810665 h -6.99732 v 5.973324 h 5.46132 v 0.810665 h -5.46132 v 6.59199 h 7.21065 v 0.810665 h -8.08532 z"
         style="font-style:normal;font-variant:normal;font-weight:100;font-stretch:normal;font-family:'Nokia Pure Headline';-inkscape-font-specification:'Nokia Pure Headline Thin';fill:#001135;fill-opacity:1"
         id="path944"
         inkscape:connector-curvature="0" /><path
         d="m 187.14607,33.298444 -3.264,4.885325 h -0.91733 l 3.75466,-5.482658 -3.58399,-5.098658 h 0.93866 l 3.15733,4.458659 3.05066,-4.458659 h 0.91733 l -3.51999,5.098658 3.83999,5.482658 h -0.91733 z"
         style="font-style:normal;font-variant:normal;font-weight:100;font-stretch:normal;font-family:'Nokia Pure Headline';-inkscape-font-specification:'Nokia Pure Headline Thin';fill:#001135;fill-opacity:1"
         id="path946"
         inkscape:connector-curvature="0" /><path
         d="m 201.82739,32.829111 q 0,-1.023998 -0.21334,-1.87733 -0.192,-0.874666 -0.61866,-1.493331 -0.40534,-0.639999 -1.04534,-1.002665 -0.63999,-0.362667 -1.51466,-0.362667 -0.87466,0 -1.6,0.341333 -0.704,0.341333 -1.216,0.938665 -0.49066,0.597333 -0.76799,1.407998 -0.256,0.810666 -0.256,1.727998 v 3.711994 q 0.21333,0.213333 0.55466,0.447999 0.36267,0.234666 0.81067,0.426666 0.448,0.192 0.98133,0.319999 0.55467,0.128 1.152,0.128 0.81066,0 1.49333,-0.277333 0.68266,-0.298666 1.17333,-0.874665 0.512,-0.597332 0.78933,-1.471998 0.27734,-0.895998 0.27734,-2.090663 z m 0.85333,0 q 0,1.535998 -0.42667,2.581329 -0.42666,1.045332 -1.088,1.685331 -0.66133,0.639999 -1.47199,0.938665 -0.81067,0.277333 -1.57867,0.277333 -1.00266,0 -1.89866,-0.298666 -0.87467,-0.298666 -1.64267,-0.831999 v 5.695991 h -0.78933 V 27.602453 h 0.81067 v 2.154663 q 0.55466,-1.215998 1.53599,-1.813331 1.00267,-0.618665 2.32533,-0.618665 1.04534,0 1.83467,0.405332 0.78933,0.405333 1.32266,1.130665 0.53333,0.725332 0.78933,1.749331 0.27734,1.002665 0.27734,2.218663 z"
         style="font-style:normal;font-variant:normal;font-weight:100;font-stretch:normal;font-family:'Nokia Pure Headline';-inkscape-font-specification:'Nokia Pure Headline Thin';fill:#001135;fill-opacity:1"
         id="path948"
         inkscape:connector-curvature="0" /><path
         d="m 205.28938,32.850444 q 0,-1.194664 0.29867,-2.19733 0.29866,-1.023998 0.87466,-1.74933 0.59733,-0.746666 1.49333,-1.151998 0.896,-0.426666 2.09067,-0.426666 1.23733,0 2.13333,0.405332 0.89599,0.405333 1.47199,1.151999 0.59734,0.725332 0.87467,1.74933 0.27733,1.002665 0.27733,2.218663 0,1.194665 -0.29867,2.19733 -0.29866,1.002665 -0.89599,1.749331 -0.59734,0.746665 -1.49333,1.173331 -0.896,0.405333 -2.06933,0.405333 -1.216,0 -2.112,-0.426666 -0.896,-0.426666 -1.49333,-1.151998 -0.576,-0.746666 -0.87467,-1.749331 -0.27733,-1.023998 -0.27733,-2.19733 z m 0.85333,0 q 0,2.239997 0.93867,3.498661 0.93866,1.258665 2.94399,1.258665 1.024,0 1.74933,-0.341333 0.74667,-0.341332 1.216,-0.959998 0.49067,-0.618666 0.72533,-1.493331 0.23467,-0.874665 0.23467,-1.962664 0,-2.218663 -0.93867,-3.477328 -0.93866,-1.279998 -2.96532,-1.279998 -1.00267,0 -1.74934,0.341333 -0.72533,0.341333 -1.21599,0.959999 -0.46934,0.618665 -0.704,1.493331 -0.23467,0.874665 -0.23467,1.962663 z"
         style="font-style:normal;font-variant:normal;font-weight:100;font-stretch:normal;font-family:'Nokia Pure Headline';-inkscape-font-specification:'Nokia Pure Headline Thin';fill:#001135;fill-opacity:1"
         id="path950"
         inkscape:connector-curvature="0" /><path
         d="m 218.77403,27.602453 v 2.517329 q 0.49067,-1.258665 1.472,-1.919997 0.98133,-0.682666 2.36799,-0.682666 0.128,0 0.34134,0.02133 0.21333,0 0.36266,0.04267 l -0.0853,0.789332 q -0.14933,-0.02133 -0.384,-0.02133 -0.21333,-0.02133 -0.32,-0.02133 -0.93866,0 -1.64266,0.383999 -0.704,0.362666 -1.17334,1.002665 -0.46933,0.639999 -0.72533,1.493331 -0.23466,0.853332 -0.23466,1.791997 v 5.183992 h -0.81067 V 27.602453 Z"
         style="font-style:normal;font-variant:normal;font-weight:100;font-stretch:normal;font-family:'Nokia Pure Headline';-inkscape-font-specification:'Nokia Pure Headline Thin';fill:#001135;fill-opacity:1"
         id="path952"
         inkscape:connector-curvature="0" /><path
         d="m 226.81402,28.349118 h -2.21867 v -0.746665 h 2.21867 v -3.178662 l 0.81066,-0.213333 v 3.391995 h 3.24266 v 0.746665 h -3.24266 v 6.613323 q 0,0.789332 0.14933,1.301331 0.14934,0.490666 0.448,0.789332 0.29867,0.277333 0.74667,0.384 0.46933,0.106666 1.088,0.106666 0.32,0 0.85333,-0.106666 l 0.10667,0.682665 q -0.17067,0.064 -0.55467,0.106667 -0.36267,0.064 -0.78933,0.064 -0.81067,0 -1.36533,-0.213333 -0.53334,-0.234667 -0.87467,-0.639999 -0.32,-0.405333 -0.46933,-0.959999 -0.14933,-0.554666 -0.14933,-1.194665 z"
         style="font-style:normal;font-variant:normal;font-weight:100;font-stretch:normal;font-family:'Nokia Pure Headline';-inkscape-font-specification:'Nokia Pure Headline Thin';fill:#001135;fill-opacity:1"
         id="path954"
         inkscape:connector-curvature="0" /><path
         d="m 240.92166,37.60777 q -0.384,0.256 -1.19467,0.511999 -0.81066,0.256 -1.87733,0.256 -1.23733,0 -2.15466,-0.383999 -0.91733,-0.405333 -1.536,-1.109332 -0.59733,-0.725332 -0.896,-1.727997 -0.29866,-1.023999 -0.29866,-2.282663 0,-1.279998 0.32,-2.303997 0.32,-1.023998 0.89599,-1.727997 0.576,-0.725332 1.408,-1.109332 0.832,-0.405332 1.856,-0.405332 0.93866,0 1.70666,0.319999 0.78934,0.32 1.344,1.002665 0.576,0.661333 0.896,1.749331 0.32,1.066665 0.32,2.559996 v 0.192 h -7.91465 q 0.10666,2.111996 1.04533,3.285328 0.93866,1.173331 3.05066,1.173331 0.87466,0 1.57866,-0.192 0.704,-0.213333 1.19467,-0.447999 z m -0.064,-5.205325 q -0.0427,-1.002665 -0.256,-1.791997 -0.21334,-0.810666 -0.64,-1.365331 -0.40533,-0.554666 -1.04533,-0.853332 -0.61867,-0.298667 -1.49333,-0.298667 -1.6,0 -2.56,1.130665 -0.93866,1.130665 -1.06666,3.178662 z"
         style="font-style:normal;font-variant:normal;font-weight:100;font-stretch:normal;font-family:'Nokia Pure Headline';-inkscape-font-specification:'Nokia Pure Headline Thin';fill:#001135;fill-opacity:1"
         id="path956"
         inkscape:connector-curvature="0" /><path
         d="m 245.49064,27.602453 v 2.517329 q 0.49067,-1.258665 1.472,-1.919997 0.98133,-0.682666 2.368,-0.682666 0.128,0 0.34133,0.02133 0.21333,0 0.36267,0.04267 l -0.0853,0.789332 q -0.14933,-0.02133 -0.384,-0.02133 -0.21333,-0.02133 -0.32,-0.02133 -0.93866,0 -1.64266,0.383999 -0.704,0.362666 -1.17333,1.002665 -0.46933,0.639999 -0.72533,1.493331 -0.23467,0.853332 -0.23467,1.791997 v 5.183992 h -0.81067 V 27.602453 Z"
         style="font-style:normal;font-variant:normal;font-weight:100;font-stretch:normal;font-family:'Nokia Pure Headline';-inkscape-font-specification:'Nokia Pure Headline Thin';fill:#001135;fill-opacity:1"
         id="path958"
         inkscape:connector-curvature="0" /></g></g></svg>
